<svg xmlns="http://www.w3.org/2000/svg" xmlns:xlink="http://www.w3.org/1999/xlink" width="500" zoomAndPan="magnify" viewBox="0 0 375 374.999991" height="500" preserveAspectRatio="xMidYMid meet" version="1.2"><defs><clipPath id="db8deaef87"><rect x="0" width="168" y="0" height="257"/></clipPath><clipPath id="6ddc2bbd58"><rect x="0" width="170" y="0" height="264"/></clipPath><clipPath id="5f737105c0"><rect x="0" width="360" y="0" height="61"/></clipPath></defs><g id="054f5c679f"><g transform="matrix(1,0,0,1,75,0)"><g clip-path="url(#db8deaef87)"><g style="fill:#0097b2;fill-opacity:1;"><g transform="translate(1.104909, 211.363223)"><path style="stroke:none" d="M 122.40625 -162.5 L 145.140625 -162.5 L 145.140625 0 L 122.40625 0 L 122.40625 -75.03125 L 42.90625 -75.03125 L 42.90625 0 L 20.171875 0 L 20.171875 -162.5 L 42.90625 -162.5 L 42.90625 -94.734375 L 122.40625 -94.734375 Z M 122.40625 -162.5 "/></g></g></g></g><g transform="matrix(1,0,0,1,131,53)"><g clip-path="url(#6ddc2bbd58)"><g style="fill:#d9d9d9;fill-opacity:1;"><g transform="translate(168.823238, 45.558377)"><path style="stroke:none" d="M -153.59375 81.359375 C -153.59375 67.296875 -151.398438 55.066406 -147.015625 44.671875 C -142.640625 34.273438 -136.460938 25.675781 -128.484375 18.875 C -120.515625 12.070312 -110.976562 6.988281 -99.875 3.625 C -88.78125 0.269531 -76.59375 -1.40625 -63.3125 -1.40625 C -56.75 -1.40625 -49.519531 -1.128906 -41.625 -0.578125 C -33.726562 -0.0351562 -26.578125 1.015625 -20.171875 2.578125 L -20.171875 160.15625 C -26.578125 161.71875 -33.726562 162.769531 -41.625 163.3125 C -49.519531 163.863281 -56.75 164.140625 -63.3125 164.140625 C -76.59375 164.140625 -88.78125 162.457031 -99.875 159.09375 C -110.976562 155.738281 -120.515625 150.660156 -128.484375 143.859375 C -136.460938 137.054688 -142.640625 128.457031 -147.015625 118.0625 C -151.398438 107.664062 -153.59375 95.429688 -153.59375 81.359375 Z M -65.1875 18.53125 C -86.757812 18.53125 -102.859375 24.039062 -113.484375 35.0625 C -124.117188 46.082031 -129.4375 61.515625 -129.4375 81.359375 C -129.4375 101.210938 -124.117188 116.648438 -113.484375 127.671875 C -102.859375 138.691406 -86.757812 144.203125 -65.1875 144.203125 C -58.78125 144.203125 -53.816406 144.125 -50.296875 143.96875 C -46.773438 143.8125 -44.3125 143.65625 -42.90625 143.5 L -42.90625 19.234375 C -44.3125 19.078125 -46.773438 18.921875 -50.296875 18.765625 C -53.816406 18.609375 -58.78125 18.53125 -65.1875 18.53125 Z M -65.1875 18.53125 "/></g></g></g></g><g transform="matrix(1,0,0,1,7,294)"><g clip-path="url(#5f737105c0)"><g style="fill:#d9d9d9;fill-opacity:1;"><g transform="translate(1.002488, 47.661597)"><path style="stroke:none" d="M 6.21875 -34.03125 L 23.53125 -34.03125 C 24.082031 -34.03125 24.550781 -33.851562 24.9375 -33.5 C 25.332031 -33.144531 25.53125 -32.691406 25.53125 -32.140625 C 25.53125 -31.585938 25.332031 -31.140625 24.9375 -30.796875 C 24.550781 -30.460938 24.082031 -30.296875 23.53125 -30.296875 L 7.875 -30.296875 L 8.3125 -31.125 L 8.3125 -18.8125 L 7.828125 -19.359375 L 21.34375 -19.359375 C 21.894531 -19.359375 22.363281 -19.175781 22.75 -18.8125 C 23.144531 -18.457031 23.34375 -18.003906 23.34375 -17.453125 C 23.34375 -16.898438 23.144531 -16.453125 22.75 -16.109375 C 22.363281 -15.773438 21.894531 -15.609375 21.34375 -15.609375 L 7.96875 -15.609375 L 8.3125 -16.046875 L 8.3125 -3.453125 L 8.015625 -3.796875 L 23.53125 -3.796875 C 24.082031 -3.796875 24.550781 -3.597656 24.9375 -3.203125 C 25.332031 -2.816406 25.53125 -2.378906 25.53125 -1.890625 C 25.53125 -1.335938 25.332031 -0.882812 24.9375 -0.53125 C 24.550781 -0.175781 24.082031 0 23.53125 0 L 6.21875 0 C 5.664062 0 5.203125 -0.191406 4.828125 -0.578125 C 4.460938 -0.972656 4.28125 -1.445312 4.28125 -2 L 4.28125 -32.09375 C 4.28125 -32.644531 4.460938 -33.101562 4.828125 -33.46875 C 5.203125 -33.84375 5.664062 -34.03125 6.21875 -34.03125 Z M 6.21875 -34.03125 "/></g></g><g style="fill:#d9d9d9;fill-opacity:1;"><g transform="translate(27.499704, 47.661597)"><path style="stroke:none" d="M 4.625 -13.171875 C 4.070312 -13.171875 3.609375 -13.359375 3.234375 -13.734375 C 2.859375 -14.109375 2.671875 -14.585938 2.671875 -15.171875 C 2.671875 -15.722656 2.859375 -16.175781 3.234375 -16.53125 C 3.609375 -16.882812 4.070312 -17.0625 4.625 -17.0625 L 14.4375 -17.0625 C 14.988281 -17.0625 15.453125 -16.867188 15.828125 -16.484375 C 16.203125 -16.097656 16.390625 -15.628906 16.390625 -15.078125 C 16.390625 -14.523438 16.203125 -14.066406 15.828125 -13.703125 C 15.453125 -13.347656 14.988281 -13.171875 14.4375 -13.171875 Z M 4.625 -13.171875 "/></g></g><g style="fill:#d9d9d9;fill-opacity:1;"><g transform="translate(45.342741, 47.661597)"><path style="stroke:none" d="M 6.328125 -34.03125 C 6.867188 -34.03125 7.332031 -33.84375 7.71875 -33.46875 C 8.113281 -33.101562 8.3125 -32.628906 8.3125 -32.046875 L 8.3125 -2 C 8.3125 -1.445312 8.109375 -0.972656 7.703125 -0.578125 C 7.296875 -0.191406 6.816406 0 6.265625 0 C 5.648438 0 5.164062 -0.191406 4.8125 -0.578125 C 4.457031 -0.972656 4.28125 -1.445312 4.28125 -2 L 4.28125 -32.046875 C 4.28125 -32.628906 4.472656 -33.101562 4.859375 -33.46875 C 5.253906 -33.84375 5.742188 -34.03125 6.328125 -34.03125 Z M 28.734375 -34.03125 C 29.316406 -34.03125 29.796875 -33.84375 30.171875 -33.46875 C 30.546875 -33.101562 30.734375 -32.628906 30.734375 -32.046875 L 30.734375 -2 C 30.734375 -1.445312 30.535156 -0.972656 30.140625 -0.578125 C 29.753906 -0.191406 29.269531 0 28.6875 0 C 28.132812 0 27.660156 -0.191406 27.265625 -0.578125 C 26.878906 -0.972656 26.6875 -1.445312 26.6875 -2 L 26.6875 -32.046875 C 26.6875 -32.628906 26.890625 -33.101562 27.296875 -33.46875 C 27.703125 -33.84375 28.179688 -34.03125 28.734375 -34.03125 Z M 6.125 -19.203125 L 28.78125 -19.203125 L 28.734375 -15.421875 L 5.984375 -15.421875 Z M 6.125 -19.203125 "/></g></g><g style="fill:#d9d9d9;fill-opacity:1;"><g transform="translate(79.132811, 47.661597)"><path style="stroke:none" d="M 16.046875 -28.984375 L 4.625 -1.171875 C 4.488281 -0.773438 4.257812 -0.460938 3.9375 -0.234375 C 3.613281 -0.015625 3.273438 0.09375 2.921875 0.09375 C 2.304688 0.09375 1.851562 -0.0664062 1.5625 -0.390625 C 1.269531 -0.710938 1.125 -1.101562 1.125 -1.5625 C 1.082031 -1.78125 1.113281 -2.019531 1.21875 -2.28125 L 13.8125 -32.921875 C 13.96875 -33.367188 14.21875 -33.695312 14.5625 -33.90625 C 14.90625 -34.125 15.285156 -34.21875 15.703125 -34.1875 C 16.128906 -34.1875 16.507812 -34.070312 16.84375 -33.84375 C 17.1875 -33.613281 17.421875 -33.304688 17.546875 -32.921875 L 30.09375 -2.578125 C 30.195312 -2.316406 30.25 -2.054688 30.25 -1.796875 C 30.25 -1.210938 30.050781 -0.75 29.65625 -0.40625 C 29.269531 -0.0703125 28.832031 0.09375 28.34375 0.09375 C 27.957031 0.09375 27.601562 -0.015625 27.28125 -0.234375 C 26.957031 -0.460938 26.710938 -0.789062 26.546875 -1.21875 L 14.96875 -29.03125 Z M 7.046875 -9.09375 L 8.703125 -12.890625 L 23.140625 -12.890625 L 23.875 -9.09375 Z M 7.046875 -9.09375 "/></g></g><g style="fill:#d9d9d9;fill-opacity:1;"><g transform="translate(109.227845, 47.661597)"><path style="stroke:none" d="M 23.046875 -3.84375 C 23.597656 -3.84375 24.066406 -3.65625 24.453125 -3.28125 C 24.847656 -2.90625 25.046875 -2.441406 25.046875 -1.890625 C 25.046875 -1.335938 24.847656 -0.882812 24.453125 -0.53125 C 24.066406 -0.175781 23.597656 0 23.046875 0 L 6.21875 0 C 5.664062 0 5.203125 -0.191406 4.828125 -0.578125 C 4.460938 -0.972656 4.28125 -1.445312 4.28125 -2 L 4.28125 -32.09375 C 4.28125 -32.644531 4.472656 -33.101562 4.859375 -33.46875 C 5.253906 -33.84375 5.742188 -34.03125 6.328125 -34.03125 C 6.867188 -34.03125 7.332031 -33.84375 7.71875 -33.46875 C 8.113281 -33.101562 8.3125 -32.644531 8.3125 -32.09375 L 8.3125 -2.96875 L 7.34375 -3.84375 Z M 23.046875 -3.84375 "/></g></g><g style="fill:#d9d9d9;fill-opacity:1;"><g transform="translate(134.363737, 47.661597)"><path style="stroke:none" d="M 14.828125 0 C 14.242188 0 13.753906 -0.191406 13.359375 -0.578125 C 12.972656 -0.972656 12.78125 -1.445312 12.78125 -2 L 12.78125 -32.046875 L 16.921875 -32.046875 L 16.921875 -2 C 16.921875 -1.445312 16.722656 -0.972656 16.328125 -0.578125 C 15.941406 -0.191406 15.441406 0 14.828125 0 Z M 3.546875 -30.34375 C 2.992188 -30.34375 2.53125 -30.507812 2.15625 -30.84375 C 1.789062 -31.1875 1.609375 -31.632812 1.609375 -32.1875 C 1.609375 -32.738281 1.789062 -33.179688 2.15625 -33.515625 C 2.53125 -33.859375 2.992188 -34.03125 3.546875 -34.03125 L 26.15625 -34.03125 C 26.707031 -34.03125 27.175781 -33.859375 27.5625 -33.515625 C 27.957031 -33.179688 28.15625 -32.738281 28.15625 -32.1875 C 28.15625 -31.601562 27.957031 -31.148438 27.5625 -30.828125 C 27.175781 -30.503906 26.707031 -30.34375 26.15625 -30.34375 Z M 3.546875 -30.34375 "/></g></g><g style="fill:#d9d9d9;fill-opacity:1;"><g transform="translate(162.854337, 47.661597)"><path style="stroke:none" d="M 6.21875 -34.03125 L 23.53125 -34.03125 C 24.082031 -34.03125 24.550781 -33.851562 24.9375 -33.5 C 25.332031 -33.144531 25.53125 -32.691406 25.53125 -32.140625 C 25.53125 -31.585938 25.332031 -31.140625 24.9375 -30.796875 C 24.550781 -30.460938 24.082031 -30.296875 23.53125 -30.296875 L 7.875 -30.296875 L 8.3125 -31.125 L 8.3125 -18.8125 L 7.828125 -19.359375 L 21.34375 -19.359375 C 21.894531 -19.359375 22.363281 -19.175781 22.75 -18.8125 C 23.144531 -18.457031 23.34375 -18.003906 23.34375 -17.453125 C 23.34375 -16.898438 23.144531 -16.453125 22.75 -16.109375 C 22.363281 -15.773438 21.894531 -15.609375 21.34375 -15.609375 L 7.96875 -15.609375 L 8.3125 -16.046875 L 8.3125 -3.453125 L 8.015625 -3.796875 L 23.53125 -3.796875 C 24.082031 -3.796875 24.550781 -3.597656 24.9375 -3.203125 C 25.332031 -2.816406 25.53125 -2.378906 25.53125 -1.890625 C 25.53125 -1.335938 25.332031 -0.882812 24.9375 -0.53125 C 24.550781 -0.175781 24.082031 0 23.53125 0 L 6.21875 0 C 5.664062 0 5.203125 -0.191406 4.828125 -0.578125 C 4.460938 -0.972656 4.28125 -1.445312 4.28125 -2 L 4.28125 -32.09375 C 4.28125 -32.644531 4.460938 -33.101562 4.828125 -33.46875 C 5.203125 -33.84375 5.664062 -34.03125 6.21875 -34.03125 Z M 6.21875 -34.03125 "/></g></g><g style="fill:#0097b2;fill-opacity:1;"><g transform="translate(189.361262, 47.661597)"><path style="stroke:none" d="M 18.375 -34.03125 C 20.75 -34.03125 22.832031 -33.582031 24.625 -32.6875 C 26.425781 -31.800781 27.925781 -30.5625 29.125 -28.96875 C 30.320312 -27.382812 31.21875 -25.5625 31.8125 -23.5 C 32.414062 -21.445312 32.71875 -19.285156 32.71875 -17.015625 C 32.71875 -13.898438 32.179688 -11.054688 31.109375 -8.484375 C 30.046875 -5.910156 28.457031 -3.851562 26.34375 -2.3125 C 24.238281 -0.769531 21.582031 0 18.375 0 L 6.21875 0 C 5.664062 0 5.203125 -0.191406 4.828125 -0.578125 C 4.460938 -0.972656 4.28125 -1.445312 4.28125 -2 L 4.28125 -32.09375 C 4.28125 -32.644531 4.460938 -33.101562 4.828125 -33.46875 C 5.203125 -33.84375 5.664062 -34.03125 6.21875 -34.03125 Z M 17.890625 -3.796875 C 20.390625 -3.796875 22.425781 -4.394531 24 -5.59375 C 25.570312 -6.789062 26.722656 -8.394531 27.453125 -10.40625 C 28.179688 -12.414062 28.546875 -14.617188 28.546875 -17.015625 C 28.546875 -18.765625 28.34375 -20.441406 27.9375 -22.046875 C 27.53125 -23.648438 26.894531 -25.066406 26.03125 -26.296875 C 25.175781 -27.535156 24.078125 -28.507812 22.734375 -29.21875 C 21.390625 -29.9375 19.773438 -30.296875 17.890625 -30.296875 L 7.921875 -30.296875 L 8.3125 -30.6875 L 8.3125 -3.3125 L 8.015625 -3.796875 Z M 17.890625 -3.796875 "/></g></g><g style="fill:#0097b2;fill-opacity:1;"><g transform="translate(223.054098, 47.661597)"><path style="stroke:none" d="M 8.3125 -2 C 8.3125 -1.445312 8.109375 -0.972656 7.703125 -0.578125 C 7.296875 -0.191406 6.816406 0 6.265625 0 C 5.648438 0 5.164062 -0.191406 4.8125 -0.578125 C 4.457031 -0.972656 4.28125 -1.445312 4.28125 -2 L 4.28125 -32.046875 C 4.28125 -32.628906 4.472656 -33.101562 4.859375 -33.46875 C 5.253906 -33.84375 5.742188 -34.03125 6.328125 -34.03125 C 6.867188 -34.03125 7.332031 -33.84375 7.71875 -33.46875 C 8.113281 -33.101562 8.3125 -32.628906 8.3125 -32.046875 Z M 8.3125 -2 "/></g></g><g style="fill:#0097b2;fill-opacity:1;"><g transform="translate(234.43081, 47.661597)"><path style="stroke:none" d="M 14.203125 0.484375 C 11.796875 0.484375 9.6875 0.128906 7.875 -0.578125 C 6.0625 -1.296875 4.3125 -2.429688 2.625 -3.984375 C 2.394531 -4.210938 2.207031 -4.460938 2.0625 -4.734375 C 1.914062 -5.015625 1.84375 -5.316406 1.84375 -5.640625 C 1.84375 -6.160156 2.03125 -6.625 2.40625 -7.03125 C 2.78125 -7.4375 3.242188 -7.640625 3.796875 -7.640625 C 4.242188 -7.640625 4.648438 -7.457031 5.015625 -7.09375 C 6.273438 -5.863281 7.640625 -4.925781 9.109375 -4.28125 C 10.585938 -3.632812 12.25 -3.3125 14.09375 -3.3125 C 15.519531 -3.3125 16.804688 -3.535156 17.953125 -3.984375 C 19.109375 -4.441406 20.023438 -5.070312 20.703125 -5.875 C 21.390625 -6.6875 21.734375 -7.628906 21.734375 -8.703125 C 21.703125 -10.003906 21.320312 -11.070312 20.59375 -11.90625 C 19.863281 -12.75 18.859375 -13.453125 17.578125 -14.015625 C 16.296875 -14.585938 14.8125 -15.070312 13.125 -15.46875 C 11.632812 -15.820312 10.265625 -16.253906 9.015625 -16.765625 C 7.765625 -17.285156 6.6875 -17.925781 5.78125 -18.6875 C 4.875 -19.457031 4.171875 -20.382812 3.671875 -21.46875 C 3.171875 -22.550781 2.921875 -23.820312 2.921875 -25.28125 C 2.921875 -27.132812 3.40625 -28.753906 4.375 -30.140625 C 5.34375 -31.535156 6.6875 -32.613281 8.40625 -33.375 C 10.125 -34.144531 12.101562 -34.53125 14.34375 -34.53125 C 16.320312 -34.53125 18.191406 -34.203125 19.953125 -33.546875 C 21.722656 -32.898438 23.144531 -32.007812 24.21875 -30.875 C 24.863281 -30.257812 25.1875 -29.660156 25.1875 -29.078125 C 25.1875 -28.585938 24.984375 -28.140625 24.578125 -27.734375 C 24.171875 -27.328125 23.707031 -27.125 23.1875 -27.125 C 22.832031 -27.125 22.507812 -27.253906 22.21875 -27.515625 C 21.664062 -28.140625 20.96875 -28.691406 20.125 -29.171875 C 19.28125 -29.660156 18.359375 -30.050781 17.359375 -30.34375 C 16.359375 -30.632812 15.351562 -30.78125 14.34375 -30.78125 C 12.851562 -30.78125 11.539062 -30.5625 10.40625 -30.125 C 9.269531 -29.6875 8.382812 -29.066406 7.75 -28.265625 C 7.125 -27.472656 6.8125 -26.53125 6.8125 -25.4375 C 6.8125 -24.195312 7.164062 -23.179688 7.875 -22.390625 C 8.59375 -21.597656 9.550781 -20.945312 10.75 -20.4375 C 11.945312 -19.9375 13.273438 -19.492188 14.734375 -19.109375 C 16.316406 -18.722656 17.78125 -18.273438 19.125 -17.765625 C 20.476562 -17.265625 21.640625 -16.640625 22.609375 -15.890625 C 23.578125 -15.148438 24.328125 -14.203125 24.859375 -13.046875 C 25.398438 -11.898438 25.671875 -10.484375 25.671875 -8.796875 C 25.671875 -7.015625 25.164062 -5.425781 24.15625 -4.03125 C 23.15625 -2.632812 21.785156 -1.539062 20.046875 -0.75 C 18.316406 0.0390625 16.367188 0.453125 14.203125 0.484375 Z M 14.203125 0.484375 "/></g></g><g style="fill:#0097b2;fill-opacity:1;"><g transform="translate(261.122509, 47.661597)"><path style="stroke:none" d="M 6.328125 -34.03125 C 6.867188 -34.03125 7.332031 -33.84375 7.71875 -33.46875 C 8.113281 -33.101562 8.3125 -32.628906 8.3125 -32.046875 L 8.3125 -2 C 8.3125 -1.445312 8.109375 -0.972656 7.703125 -0.578125 C 7.296875 -0.191406 6.816406 0 6.265625 0 C 5.648438 0 5.164062 -0.191406 4.8125 -0.578125 C 4.457031 -0.972656 4.28125 -1.445312 4.28125 -2 L 4.28125 -32.046875 C 4.28125 -32.628906 4.472656 -33.101562 4.859375 -33.46875 C 5.253906 -33.84375 5.742188 -34.03125 6.328125 -34.03125 Z M 28.734375 -34.03125 C 29.316406 -34.03125 29.796875 -33.84375 30.171875 -33.46875 C 30.546875 -33.101562 30.734375 -32.628906 30.734375 -32.046875 L 30.734375 -2 C 30.734375 -1.445312 30.535156 -0.972656 30.140625 -0.578125 C 29.753906 -0.191406 29.269531 0 28.6875 0 C 28.132812 0 27.660156 -0.191406 27.265625 -0.578125 C 26.878906 -0.972656 26.6875 -1.445312 26.6875 -2 L 26.6875 -32.046875 C 26.6875 -32.628906 26.890625 -33.101562 27.296875 -33.46875 C 27.703125 -33.84375 28.179688 -34.03125 28.734375 -34.03125 Z M 6.125 -19.203125 L 28.78125 -19.203125 L 28.734375 -15.421875 L 5.984375 -15.421875 Z M 6.125 -19.203125 "/></g></g><g style="fill:#0097b2;fill-opacity:1;"><g transform="translate(294.91258, 47.661597)"><path style="stroke:none" d="M 28.390625 -34.09375 C 28.941406 -34.09375 29.394531 -33.894531 29.75 -33.5 C 30.113281 -33.113281 30.296875 -32.644531 30.296875 -32.09375 L 30.296875 -12.78125 C 30.296875 -10.289062 29.71875 -8.054688 28.5625 -6.078125 C 27.414062 -4.097656 25.867188 -2.53125 23.921875 -1.375 C 21.972656 -0.226562 19.769531 0.34375 17.3125 0.34375 C 14.8125 0.34375 12.582031 -0.226562 10.625 -1.375 C 8.664062 -2.53125 7.117188 -4.097656 5.984375 -6.078125 C 4.847656 -8.054688 4.28125 -10.289062 4.28125 -12.78125 L 4.28125 -32.09375 C 4.28125 -32.644531 4.460938 -33.113281 4.828125 -33.5 C 5.203125 -33.894531 5.703125 -34.09375 6.328125 -34.09375 C 6.835938 -34.09375 7.296875 -33.894531 7.703125 -33.5 C 8.109375 -33.113281 8.3125 -32.644531 8.3125 -32.09375 L 8.3125 -12.78125 C 8.3125 -11 8.71875 -9.410156 9.53125 -8.015625 C 10.34375 -6.628906 11.4375 -5.535156 12.8125 -4.734375 C 14.1875 -3.941406 15.6875 -3.546875 17.3125 -3.546875 C 18.96875 -3.546875 20.488281 -3.941406 21.875 -4.734375 C 23.269531 -5.535156 24.394531 -6.628906 25.25 -8.015625 C 26.113281 -9.410156 26.546875 -11 26.546875 -12.78125 L 26.546875 -32.09375 C 26.546875 -32.644531 26.707031 -33.113281 27.03125 -33.5 C 27.351562 -33.894531 27.804688 -34.09375 28.390625 -34.09375 Z M 28.390625 -34.09375 "/></g></g><g style="fill:#0097b2;fill-opacity:1;"><g transform="translate(328.216464, 47.661597)"><path style="stroke:none" d="M 18.921875 -34.03125 C 21.765625 -34.03125 23.957031 -33.289062 25.5 -31.8125 C 27.039062 -30.34375 27.8125 -28.265625 27.8125 -25.578125 C 27.8125 -24.148438 27.488281 -22.835938 26.84375 -21.640625 C 26.195312 -20.441406 25.25 -19.484375 24 -18.765625 C 22.75 -18.054688 21.21875 -17.671875 19.40625 -17.609375 L 19.296875 -18.96875 C 20.429688 -18.96875 21.597656 -18.800781 22.796875 -18.46875 C 24.003906 -18.144531 25.117188 -17.628906 26.140625 -16.921875 C 27.160156 -16.210938 27.984375 -15.269531 28.609375 -14.09375 C 29.242188 -12.925781 29.5625 -11.488281 29.5625 -9.78125 C 29.5625 -7.925781 29.253906 -6.375 28.640625 -5.125 C 28.023438 -3.882812 27.207031 -2.878906 26.1875 -2.109375 C 25.164062 -1.347656 24.03125 -0.804688 22.78125 -0.484375 C 21.53125 -0.160156 20.273438 0 19.015625 0 L 6.21875 0 C 5.664062 0 5.203125 -0.191406 4.828125 -0.578125 C 4.460938 -0.972656 4.28125 -1.445312 4.28125 -2 L 4.28125 -32.09375 C 4.28125 -32.644531 4.460938 -33.101562 4.828125 -33.46875 C 5.203125 -33.84375 5.664062 -34.03125 6.21875 -34.03125 Z M 18.328125 -30.203125 L 7.875 -30.203125 L 8.453125 -31.078125 L 8.453125 -18.96875 L 7.921875 -19.59375 L 18.421875 -19.59375 C 19.847656 -19.59375 21.070312 -20.054688 22.09375 -20.984375 C 23.113281 -21.910156 23.625 -23.28125 23.625 -25.09375 C 23.625 -26.707031 23.15625 -27.960938 22.21875 -28.859375 C 21.28125 -29.753906 19.984375 -30.203125 18.328125 -30.203125 Z M 18.71875 -15.703125 L 8.125 -15.703125 L 8.453125 -16.046875 L 8.453125 -3.359375 L 8.078125 -3.796875 L 18.859375 -3.796875 C 20.773438 -3.796875 22.335938 -4.28125 23.546875 -5.25 C 24.765625 -6.21875 25.375 -7.726562 25.375 -9.78125 C 25.375 -11.363281 25.050781 -12.582031 24.40625 -13.4375 C 23.757812 -14.300781 22.925781 -14.894531 21.90625 -15.21875 C 20.882812 -15.539062 19.820312 -15.703125 18.71875 -15.703125 Z M 18.71875 -15.703125 "/></g></g></g></g></g></svg>